<?xml version="1.0" encoding="utf-8"?>
<!-- Generator: Adobe Illustrator 25.2.1, SVG Export Plug-In . SVG Version: 6.00 Build 0)  -->
<svg version="1.1" xmlns="http://www.w3.org/2000/svg" xmlns:xlink="http://www.w3.org/1999/xlink" x="0px" y="0px"
	 viewBox="0 0 1080 1080" style="enable-background:new 0 0 1080 1080;" xml:space="preserve">
<style type="text/css">
	.st0{fill:#5E2524;}
	.st1{fill:#1B6A5C;}
	.st2{fill:#5A8951;}
	.st3{fill:#8A9A97;}
	.st4{fill:#954044;}
	.st5{fill:#CB6253;}
	.st6{fill:#D48251;}
	.st7{fill:#E7C19D;}
	.st8{fill:#F9EAE0;}
	.st9{fill:none;}
</style>
<g id="Layer_2">
</g>
<g id="Layer_1">
	<g>
		<path class="st6" d="M559.5,620.1c-1.2,1.2-2.3,2.4-3.4,3.6v-42.3c8.5,1.8,17,2.7,25.5,2.7c32.2,0,63.8-12.6,87.6-36.4
			c19.7-19.7,32.3-45.9,35.5-73.5l1.4-12l-11.1-4.6c-46.6-19.4-99.7-8.9-135.4,26.8c-1.2,1.2-2.3,2.4-3.4,3.6v-18.6
			c19.1-16.3,33-38.1,39.5-62.5c12.9-48.8-4.6-100-44.8-130.5l-9.6-7.3l-9.7,7.2c-22.4,16.6-38.6,40.6-45.8,67.6
			c-12.2,46,2.8,94.2,38.3,125.2v19c-1.1-1.2-2.3-2.4-3.5-3.6c-35.7-35.7-88.8-46.2-135.4-26.8l-11.1,4.6l1.4,12
			c3.2,27.7,15.8,53.8,35.5,73.5c23.8,23.8,55.3,36.4,87.5,36.4c8.5,0,17.1-0.9,25.6-2.7v42.4c-1.1-1.2-2.3-2.4-3.5-3.6
			c-35.7-35.7-88.8-46.2-135.4-26.8l-11.1,4.6l1.4,12c3.2,27.7,15.8,53.8,35.5,73.5c23.8,23.8,55.3,36.4,87.5,36.4
			c8.5,0,17.1-0.9,25.6-2.7v94h32.1v-94c8.5,1.8,17,2.7,25.5,2.7c32.2,0,63.8-12.6,87.6-36.4c19.7-19.7,32.3-45.9,35.5-73.5l1.4-12
			l-11.1-4.6C648.3,573.9,595.2,584.4,559.5,620.1z M582.2,506.9c23.4-23.4,56.9-32.2,88.2-23.9c-4,15.8-12.2,30.1-24,41.9
			c-23.4,23.4-56.9,32.2-88.2,23.9C562.3,533,570.4,518.7,582.2,506.9z M516.7,351.9c4.3-16.1,12.6-30.4,24.2-41.8
			c22.8,22.9,32.1,56.4,23.6,88.3c-4.3,16.1-12.6,30.4-24.2,41.8C517.5,417.3,508.2,383.9,516.7,351.9z M433.5,524.9
			c-11.8-11.8-20-26.1-24-41.9c31.3-8.2,64.8,0.6,88.2,23.9c11.8,11.8,19.9,26.1,24,41.9C490.4,557.1,456.9,548.3,433.5,524.9z
			 M433.5,660.8c-11.8-11.8-20-26.1-24-41.9c31.3-8.2,64.8,0.6,88.2,23.9c11.8,11.8,19.9,26.1,24,41.9
			C490.4,693,456.9,684.1,433.5,660.8z M646.5,660.8c-23.4,23.4-56.9,32.2-88.2,23.9c4-15.8,12.2-30.1,24-41.9
			c23.4-23.4,56.9-32.2,88.2-23.9C666.4,634.7,658.2,649,646.5,660.8z"/>
	</g>
</g>
<g id="Layer_3">
</g>
</svg>
