<?xml version="1.0" encoding="utf-8"?>
<!-- Generator: Adobe Illustrator 25.2.1, SVG Export Plug-In . SVG Version: 6.00 Build 0)  -->
<svg version="1.1" xmlns="http://www.w3.org/2000/svg" xmlns:xlink="http://www.w3.org/1999/xlink" x="0px" y="0px"
	 viewBox="0 0 1080 1080" style="enable-background:new 0 0 1080 1080;" xml:space="preserve">
<style type="text/css">
	.st0{fill:#5E2524;}
	.st1{fill:#1B6A5C;}
	.st2{fill:#5A8951;}
	.st3{fill:#8A9A97;}
	.st4{fill:#954044;}
	.st5{fill:#CB6253;}
	.st6{fill:#D48251;}
	.st7{fill:#E7C19D;}
	.st8{fill:#F9EAE0;}
	.st9{fill:none;}
</style>
<g id="Layer_2">
</g>
<g id="Layer_1">
	<g>
		<g>
			<path class="st2" d="M767.1,531.8l-24.2-23.6c-65.5,30.7-117.1,83.4-147.1,147.2c9.5-114.5,55.4-223.2,131.8-310L705.6,322
				C592.4,409.4,518,532.6,493.1,669.8c-29.1-71.2-84.7-130.4-156.7-163.1l-23.5,22.9l2.1,1.8c58.6,51.9,92.2,126.4,92.2,204.5
				c0,7.2-0.3,14.5-1,22h32.2c0.5-7.4,0.9-14.8,0.9-22c0-51.3-13-101.3-37-145.5C447,634.8,476,694,482.3,758h33.9
				c2.9-106.4,36.5-207.2,95.8-292c-32.9,72.9-50.3,152.5-50.3,233.9c0,19.3,1,38.8,3,58.2h35.5c6.3-63.9,35.3-123.1,80-167.4
				c-24,44.2-37,94.2-37,145.5c0,7.2,0.3,14.6,0.9,22h32.2c-0.6-7.4-1-14.8-1-22C675.3,658.1,708.8,583.7,767.1,531.8z"/>
		</g>
	</g>
</g>
<g id="Layer_3">
</g>
</svg>
