<?xml version="1.0" encoding="utf-8"?>
<!-- Generator: Adobe Illustrator 25.2.1, SVG Export Plug-In . SVG Version: 6.00 Build 0)  -->
<svg version="1.1" xmlns="http://www.w3.org/2000/svg" xmlns:xlink="http://www.w3.org/1999/xlink" x="0px" y="0px"
	 viewBox="0 0 1080 1080" style="enable-background:new 0 0 1080 1080;" xml:space="preserve">
<style type="text/css">
	.st0{fill:#5E2524;}
	.st1{fill:#1B6A5C;}
	.st2{fill:#5A8951;}
	.st3{fill:#8A9A97;}
	.st4{fill:#954044;}
	.st5{fill:#CB6253;}
	.st6{fill:#D48251;}
	.st7{fill:#E7C19D;}
	.st8{fill:#F9EAE0;}
	.st9{fill:none;}
</style>
<g id="Layer_2">
</g>
<g id="Layer_1">
	<g>
		<path class="st1" d="M389.2,545.1c37.9-5.3,61.8-27,82.9-46.1c20.4-18.5,38.1-34.5,65.9-34.7c0.2,0,0.4,0,0.5,0
			c27.8,0,45.6,16,66.2,34.5c21.4,19.2,45.6,41,83.9,46.4c5.6,0.8,11.3,1.2,17,1.2c48.9,0,100.1-29.3,152.3-87.4l-23.9-21.5
			c-50.7,56.4-98.2,81.9-140.9,75.9c-28.6-4-47.3-20.8-67-38.5c-22.3-20-47.6-42.7-87.6-42.7c-0.3,0-0.5,0-0.8,0
			c-40.1,0.3-65.2,23-87.3,43.1c-19.4,17.6-37.7,34.2-65.8,38.1c-42.2,5.9-88.9-19.5-138.8-75.8l-24,21.3
			C279.4,523.6,335.7,552.7,389.2,545.1z"/>
		<path class="st1" d="M693.2,614.9c-28.6-4-47.3-20.8-67-38.5c-22.5-20.2-47.8-42.9-88.4-42.7c-40.1,0.3-65.2,23-87.3,43.1
			c-19.4,17.6-37.7,34.2-65.8,38.1c-42.3,5.9-89-19.6-138.8-75.8l-24,21.3c57.4,64.8,113.7,93.8,167.3,86.3
			c37.9-5.3,61.8-27,82.9-46.1c20.4-18.5,38.1-34.5,65.9-34.7c0.2,0,0.4,0,0.5,0c27.8,0,45.6,16,66.2,34.5
			c21.4,19.2,45.6,41,83.9,46.4c5.6,0.8,11.3,1.2,17,1.2c48.9,0,100.1-29.3,152.3-87.4L834.2,539
			C783.5,595.4,736.1,620.9,693.2,614.9z"/>
	</g>
</g>
<g id="Layer_3">
</g>
</svg>
