<?xml version="1.0" encoding="utf-8"?>
<!-- Generator: Adobe Illustrator 25.2.1, SVG Export Plug-In . SVG Version: 6.00 Build 0)  -->
<svg version="1.1" xmlns="http://www.w3.org/2000/svg" xmlns:xlink="http://www.w3.org/1999/xlink" x="0px" y="0px"
	 viewBox="0 0 1080 1080" style="enable-background:new 0 0 1080 1080;" xml:space="preserve">
<style type="text/css">
	.st0{fill:#5E2524;}
	.st1{fill:#1B6A5C;}
	.st2{fill:#5A8951;}
	.st3{fill:#8A9A97;}
	.st4{fill:#954044;}
	.st5{fill:#CB6253;}
	.st6{fill:#D48251;}
	.st7{fill:#E7C19D;}
	.st8{fill:#F9EAE0;}
	.st9{fill:none;}
</style>
<g id="Layer_2">
</g>
<g id="Layer_1">
</g>
<g id="Layer_3">
	<g>
		<path class="st3" d="M758.1,762v-33.9c-37.7-0.5-74.7,4.1-110,14c-44.6,12.5-73.1,29.4-100.7,45.7c-9.7,5.7-19,11.2-28.7,16.3
			h68.1c19.6-10.9,41.5-21.3,70.5-29.4C689.6,765.6,723.5,761.4,758.1,762z"/>
		<path class="st3" d="M523.9,725.4c14.4-7.1,27.3-14.7,39.8-22c26.5-15.6,51.5-30.3,90.9-41.4c33.1-9.3,67.9-13.6,103.5-12.7v-33.9
			c-22.5-0.5-44.8,0.9-66.6,4.1V389.1l66.6,33.6v-37.9L542.3,275.8L321.9,388.1v38l68.1-34.7v253.4c-22.3-3.6-45-5.2-68.1-4.9v33.9
			c34.5-0.6,68.3,3.7,100.6,12.8c22,6.2,39.7,13.5,55.5,21.5c-46.1,16.8-98.5,24-156.1,21.3v33.9c7.8,0.3,15.6,0.6,23.2,0.6
			C411.9,763.9,471.9,751,523.9,725.4z M431.6,654.1c-1.5-0.4-3.1-0.8-4.6-1.2V372.6l115.4-58.8l113.1,57.1v255.8
			c-3.3,0.8-6.7,1.7-10,2.6c-16,4.5-29.9,9.6-42.5,15v-79.7h-33.3v95.6h1c-8.4,4.6-16.3,9.3-24.2,13.9c-9.9,5.8-19.4,11.4-29.4,16.7
			C494,677.6,467.9,664.2,431.6,654.1z"/>
		<rect x="567.5" y="441" class="st3" width="37.6" height="61.9"/>
		<rect x="473.6" y="441.5" class="st3" width="37" height="61"/>
	</g>
</g>
</svg>
