<?xml version="1.0" encoding="utf-8"?>
<!-- Generator: Adobe Illustrator 25.2.1, SVG Export Plug-In . SVG Version: 6.00 Build 0)  -->
<svg version="1.1" xmlns="http://www.w3.org/2000/svg" xmlns:xlink="http://www.w3.org/1999/xlink" x="0px" y="0px"
	 viewBox="0 0 1080 1080" style="enable-background:new 0 0 1080 1080;" xml:space="preserve">
<style type="text/css">
	.st0{fill:#5E2524;}
	.st1{fill:#1B6A5C;}
	.st2{fill:#5A8951;}
	.st3{fill:#8A9A97;}
	.st4{fill:#954044;}
	.st5{fill:#CB6253;}
	.st6{fill:#D48251;}
	.st7{fill:#E7C19D;}
	.st8{fill:#F9EAE0;}
	.st9{fill:none;}
</style>
<g id="Layer_2">
</g>
<g id="Layer_1">
	<path class="st4" d="M752.1,459.7V428c-103.6,0-188.6-80.7-195.6-182.6v-7.8c0-1.9,0.1-3.8,0.1-5.8h-0.7h-31h-0.7
		c0,3.9,0.1,7.8,0.3,11.6C518.5,346.2,433,428,328.8,428v31.7c83.2,0,156.1-44.9,195.9-111.7v22.9h-0.4h-0.2
		c0,108.1-88,196.1-196.1,196.1v31.7c83.8,0,157.1-45.5,196.7-113.1v22h-0.4h-0.2c0,108.1-88,196.1-196.1,196.1v31.7
		c83.8,0,157.1-45.5,196.7-113.1v225.7h31.8V624.4c39.8,66.5,112.6,111.2,195.6,111.2v-31.7c-103.6,0-188.6-80.7-195.6-182.6v-33.6
		c39.8,66.5,112.6,111.2,195.6,111.2v-31.7c-103.6,0-188.6-80.7-195.6-182.6v-36C596.3,415.1,669.1,459.7,752.1,459.7z"/>
</g>
<g id="Layer_3">
</g>
</svg>
